<mxfile host="app.diagrams.net" modified="2022-09-24T08:15:35.776Z" agent="5.0 (Macintosh)" etag="PQOeF0ytH72qBMkgxU8Y" version="20.3.6" type="github">
  <diagram id="EmakK8yffl66fX5Xl8kI" name="Page-1">
    <mxGraphModel dx="946" dy="526" grid="1" gridSize="10" guides="1" tooltips="1" connect="1" arrows="1" fold="1" page="1" pageScale="1" pageWidth="850" pageHeight="1100" math="0" shadow="0">
      <root>
        <mxCell id="0" />
        <mxCell id="1" parent="0" />
        <mxCell id="JXaoEjgQlA8tbX5WxJ1f-2" value="&lt;div&gt;Create Template &lt;br&gt;&lt;/div&gt;&lt;div&gt;( JSON or YAML )&lt;/div&gt;" style="sketch=0;outlineConnect=0;fontColor=#232F3E;gradientColor=none;strokeColor=#232F3E;fillColor=#ffffff;dashed=0;verticalLabelPosition=bottom;verticalAlign=top;align=center;html=1;fontSize=12;fontStyle=0;aspect=fixed;shape=mxgraph.aws4.resourceIcon;resIcon=mxgraph.aws4.template;" vertex="1" parent="1">
          <mxGeometry x="375" y="60" width="60" height="60" as="geometry" />
        </mxCell>
        <mxCell id="JXaoEjgQlA8tbX5WxJ1f-3" value="Amazon S3 Bucket" style="outlineConnect=0;dashed=0;verticalLabelPosition=bottom;verticalAlign=top;align=center;html=1;shape=mxgraph.aws3.s3;fillColor=#E05243;gradientColor=none;" vertex="1" parent="1">
          <mxGeometry x="380" y="230" width="50" height="50" as="geometry" />
        </mxCell>
        <mxCell id="JXaoEjgQlA8tbX5WxJ1f-4" value="" style="endArrow=classic;html=1;rounded=0;entryX=0.5;entryY=0;entryDx=0;entryDy=0;entryPerimeter=0;" edge="1" parent="1" source="JXaoEjgQlA8tbX5WxJ1f-2" target="JXaoEjgQlA8tbX5WxJ1f-3">
          <mxGeometry width="50" height="50" relative="1" as="geometry">
            <mxPoint x="400" y="130" as="sourcePoint" />
            <mxPoint x="450" y="290" as="targetPoint" />
          </mxGeometry>
        </mxCell>
        <mxCell id="JXaoEjgQlA8tbX5WxJ1f-5" value="Upload the template file" style="text;html=1;strokeColor=none;fillColor=none;align=center;verticalAlign=middle;whiteSpace=wrap;rounded=0;" vertex="1" parent="1">
          <mxGeometry x="410" y="180" width="90" height="30" as="geometry" />
        </mxCell>
        <mxCell id="JXaoEjgQlA8tbX5WxJ1f-6" value="&lt;div&gt;AWS Cloudformation Stack &lt;br&gt;&lt;/div&gt;&lt;div&gt;( collection of AWS resources)&lt;/div&gt;" style="outlineConnect=0;dashed=0;verticalLabelPosition=bottom;verticalAlign=top;align=center;html=1;shape=mxgraph.aws3.stack_aws_cloudformation;fillColor=#759C3E;gradientColor=none;" vertex="1" parent="1">
          <mxGeometry x="368.25" y="380" width="73.5" height="58.5" as="geometry" />
        </mxCell>
        <mxCell id="JXaoEjgQlA8tbX5WxJ1f-7" value="" style="endArrow=classic;html=1;rounded=0;exitX=0.5;exitY=1;exitDx=0;exitDy=0;exitPerimeter=0;entryX=0.5;entryY=0;entryDx=0;entryDy=0;entryPerimeter=0;" edge="1" parent="1" source="JXaoEjgQlA8tbX5WxJ1f-3" target="JXaoEjgQlA8tbX5WxJ1f-6">
          <mxGeometry width="50" height="50" relative="1" as="geometry">
            <mxPoint x="400" y="340" as="sourcePoint" />
            <mxPoint x="450" y="290" as="targetPoint" />
          </mxGeometry>
        </mxCell>
        <mxCell id="JXaoEjgQlA8tbX5WxJ1f-8" value="Select template and create stack through AWS console or APIs" style="text;html=1;strokeColor=none;fillColor=none;align=center;verticalAlign=middle;whiteSpace=wrap;rounded=0;" vertex="1" parent="1">
          <mxGeometry x="410" y="320" width="170" height="30" as="geometry" />
        </mxCell>
        <mxCell id="JXaoEjgQlA8tbX5WxJ1f-11" value="" style="endArrow=classic;html=1;rounded=0;exitX=0.5;exitY=1;exitDx=0;exitDy=0;exitPerimeter=0;" edge="1" parent="1" source="JXaoEjgQlA8tbX5WxJ1f-6" target="JXaoEjgQlA8tbX5WxJ1f-13">
          <mxGeometry width="50" height="50" relative="1" as="geometry">
            <mxPoint x="400" y="520" as="sourcePoint" />
            <mxPoint x="405" y="580" as="targetPoint" />
          </mxGeometry>
        </mxCell>
        <mxCell id="JXaoEjgQlA8tbX5WxJ1f-13" value="" style="outlineConnect=0;dashed=0;verticalLabelPosition=bottom;verticalAlign=top;align=center;html=1;shape=mxgraph.aws3.cloud_2;fillColor=#F58534;gradientColor=none;" vertex="1" parent="1">
          <mxGeometry x="366.75" y="590" width="75" height="75" as="geometry" />
        </mxCell>
        <mxCell id="JXaoEjgQlA8tbX5WxJ1f-14" value="Cloudformation understands the stack and provisions the resources in AWS" style="text;html=1;strokeColor=none;fillColor=none;align=center;verticalAlign=middle;whiteSpace=wrap;rounded=0;" vertex="1" parent="1">
          <mxGeometry x="410" y="510" width="170" height="30" as="geometry" />
        </mxCell>
      </root>
    </mxGraphModel>
  </diagram>
</mxfile>
